<svg width="52" height="52" viewBox="0 0 52 52" fill="none" xmlns="http://www.w3.org/2000/svg">
<g clip-path="url(#clip0_328_812)">
<path d="M1.28744 18.0657C1.40749 18.0656 1.52755 18.0655 1.65125 18.0653C1.84904 18.0659 1.84904 18.0659 2.05082 18.0664C2.19095 18.0664 2.33108 18.0664 2.47121 18.0664C2.85183 18.0663 3.23245 18.0669 3.61307 18.0677C4.01077 18.0683 4.40846 18.0683 4.80616 18.0685C5.55935 18.0688 6.31254 18.0696 7.06572 18.0706C7.92316 18.0718 8.7806 18.0723 9.63804 18.0728C11.4019 18.0739 13.1658 18.0757 14.9297 18.0779C14.9299 18.1514 14.93 18.2248 14.9302 18.3005C14.934 20.0864 14.9399 21.8724 14.9484 23.6583C14.9525 24.522 14.9558 25.3856 14.9573 26.2493C14.9586 27.002 14.9613 27.7547 14.9658 28.5074C14.9681 28.906 14.9697 29.3046 14.9695 29.7032C14.9695 30.0784 14.9713 30.4535 14.9746 30.8286C14.9758 31.032 14.9751 31.2355 14.9743 31.4389C14.9757 31.56 14.9771 31.681 14.9786 31.8058C14.979 31.911 14.9793 32.0162 14.9797 32.1246C15.0446 32.4685 15.1697 32.5869 15.4376 32.8045C15.6247 32.9148 15.6247 32.9148 15.8438 32.9061C16.3747 32.6827 16.7784 32.358 17.2149 31.992C17.3587 31.8733 17.5026 31.7547 17.6465 31.6361C17.7185 31.5767 17.7906 31.5172 17.8647 31.456C18.3002 31.0991 18.7437 30.7525 19.1882 30.4071C19.3786 30.2586 19.5678 30.1085 19.7548 29.9556C19.8612 29.8702 19.8612 29.8702 19.9698 29.783C20.0277 29.7354 20.0855 29.6877 20.1451 29.6386C20.3126 29.5545 20.3126 29.5545 20.5032 29.5824C20.7474 29.6659 20.8898 29.771 21.0862 29.9378C21.1555 29.9959 21.2248 30.054 21.2963 30.1139C21.3696 30.1765 21.443 30.2391 21.5186 30.3035C21.6736 30.4335 21.8287 30.5634 21.984 30.6931C22.0614 30.758 22.1389 30.8229 22.2187 30.8898C22.7582 31.3376 23.3134 31.7654 23.8672 32.1951C23.95 32.2614 24.0327 32.3276 24.118 32.3959C24.5968 32.7897 24.5968 32.7897 25.1876 32.9061C25.5034 32.7739 25.6554 32.6812 25.8098 32.3727C25.907 32.0668 25.925 31.821 25.9268 31.5004C25.9279 31.3818 25.929 31.2632 25.9302 31.1409C25.9305 30.9471 25.9305 30.9471 25.9309 30.7493C25.9318 30.6112 25.9329 30.473 25.934 30.3349C25.9367 29.9605 25.9383 29.5862 25.9396 29.2119C25.9412 28.8205 25.9439 28.429 25.9465 28.0375C25.9513 27.2966 25.955 26.5556 25.9584 25.8147C25.9622 24.971 25.9673 24.1273 25.9724 23.2836C25.9829 21.5484 25.9919 19.8132 26.0001 18.0779C27.8319 18.0708 29.6638 18.0655 31.4957 18.0622C32.3463 18.0606 33.1969 18.0584 34.0474 18.055C34.7888 18.0519 35.5301 18.05 36.2715 18.0493C36.664 18.0489 37.0566 18.0479 37.4491 18.0457C37.8187 18.0437 38.1882 18.043 38.5577 18.0435C38.7579 18.0434 38.958 18.0417 39.1582 18.04C39.3374 18.0407 39.3374 18.0407 39.5202 18.0413C39.6239 18.041 39.7275 18.0407 39.8343 18.0405C40.2497 18.0955 40.5082 18.2551 40.7897 18.5624C40.9626 18.8421 40.9679 19.0111 40.9681 19.3387C40.9689 19.451 40.9697 19.5633 40.9705 19.679C40.9698 19.8023 40.9691 19.9256 40.9684 20.0527C40.9689 20.1838 40.9694 20.3148 40.9699 20.4498C40.9711 20.8139 40.9705 21.1779 40.9696 21.5419C40.9689 21.9344 40.9699 22.3269 40.9708 22.7193C40.9721 23.4883 40.9718 24.2573 40.971 25.0264C40.9703 25.6513 40.9702 26.2762 40.9705 26.9011C40.9706 26.99 40.9706 27.0789 40.9707 27.1704C40.9708 27.351 40.9709 27.5315 40.971 27.712C40.9718 29.4058 40.9708 31.0995 40.9692 32.7933C40.9678 34.2471 40.9681 35.7009 40.9695 37.1547C40.9711 38.8422 40.9717 40.5296 40.9708 42.2171C40.9707 42.397 40.9706 42.5769 40.9705 42.7568C40.9705 42.8453 40.9704 42.9338 40.9704 43.025C40.9701 43.6493 40.9706 44.2735 40.9713 44.8977C40.9721 45.6584 40.9719 46.419 40.9703 47.1797C40.9695 47.5679 40.9692 47.9561 40.9702 48.3443C40.9712 48.7648 40.97 49.1854 40.9684 49.6059C40.9691 49.729 40.9698 49.8521 40.9705 49.979C40.9697 50.0915 40.9689 50.2041 40.9681 50.3201C40.968 50.4657 40.968 50.4657 40.9679 50.6142C40.9085 51.0319 40.716 51.2995 40.4219 51.5936C40.1414 51.6194 40.1414 51.6194 39.775 51.62C39.7075 51.6204 39.6401 51.6208 39.5705 51.6212C39.3422 51.6222 39.1139 51.6218 38.8856 51.6214C38.7212 51.6219 38.5567 51.6224 38.3923 51.623C37.9386 51.6245 37.485 51.6246 37.0313 51.6246C36.5428 51.6248 36.0542 51.6261 35.5656 51.6273C34.4965 51.6296 33.4274 51.6304 32.3582 51.6309C31.6911 51.6312 31.024 51.6319 30.3568 51.6326C28.5109 51.6346 26.665 51.6363 24.8191 51.6366C24.6418 51.6366 24.6418 51.6366 24.4609 51.6366C24.2212 51.6367 23.9816 51.6367 23.7419 51.6367C23.6229 51.6368 23.504 51.6368 23.3814 51.6368C23.2623 51.6368 23.1431 51.6368 23.0204 51.6368C21.0896 51.6372 19.1587 51.64 17.2279 51.6437C15.2471 51.6476 13.2664 51.6496 11.2856 51.6496C10.1728 51.6497 9.06005 51.6505 7.94728 51.6535C6.99984 51.656 6.05241 51.6567 5.10497 51.6552C4.62131 51.6544 4.13769 51.6545 3.65404 51.6568C3.21154 51.6589 2.76911 51.6587 2.32661 51.6566C2.16627 51.6562 2.00592 51.6567 1.84558 51.6581C1.62802 51.66 1.4107 51.6587 1.19314 51.6566C1.01172 51.6567 1.01172 51.6568 0.826639 51.6569C0.405765 51.5733 0.256062 51.4255 6.02528e-05 51.0858C-0.0634767 50.8155 -0.0634767 50.8155 -0.0635597 50.5187C-0.0654522 50.3484 -0.0654522 50.3484 -0.0673828 50.1746C-0.0661807 50.0504 -0.0649787 49.9261 -0.0637402 49.7981C-0.0644607 49.6658 -0.0651812 49.5334 -0.0659236 49.397C-0.0678478 49.0297 -0.0666017 48.6625 -0.0648346 48.2952C-0.0634778 47.8991 -0.0650435 47.5029 -0.0662383 47.1068C-0.0681063 46.3308 -0.0672391 45.5548 -0.0654169 44.7788C-0.0639932 44.1482 -0.0635968 43.5176 -0.0639384 42.8871C-0.0639869 42.7973 -0.0640353 42.7076 -0.0640853 42.6152C-0.0641895 42.433 -0.0642968 42.2508 -0.0644069 42.0686C-0.0652773 40.4568 -0.0635823 38.845 -0.0605648 37.2332C-0.0576359 35.6688 -0.0569166 34.1043 -0.058482 32.5398C-0.0601838 30.8368 -0.0605947 29.1337 -0.0588161 27.4307C-0.0586287 27.2491 -0.0584424 27.0676 -0.0582571 26.886C-0.0581645 26.7967 -0.0580718 26.7074 -0.0579764 26.6153C-0.0574067 25.9854 -0.0577433 25.3555 -0.058414 24.7256C-0.0591987 23.958 -0.0585162 23.1905 -0.0559588 22.423C-0.0546881 22.0313 -0.0540674 21.6396 -0.0552012 21.2479C-0.0564063 20.8235 -0.0544714 20.3993 -0.0522103 19.9749C-0.0530472 19.8507 -0.0538842 19.7265 -0.0547465 19.5985C-0.0465498 18.7689 -0.0465498 18.7689 0.187409 18.3593C0.544919 18.0657 0.840902 18.0653 1.28744 18.0657ZM2.29791 43.0115C2.0455 43.3999 1.90458 43.6685 1.90185 44.137C1.90088 44.2286 1.89992 44.3201 1.89892 44.4144C1.89901 44.5126 1.8991 44.6108 1.8992 44.7119C1.89876 44.8136 1.89833 44.9153 1.89788 45.02C1.8973 45.235 1.89725 45.45 1.89769 45.6649C1.89801 45.993 1.89563 46.321 1.89305 46.6491C1.89282 46.8582 1.89275 47.0673 1.89285 47.2764C1.89192 47.3741 1.89098 47.4719 1.89002 47.5727C1.89433 48.2012 1.96576 48.6617 2.409 49.1422C2.49855 49.215 2.49855 49.215 2.5899 49.2894C2.6496 49.3393 2.7093 49.3891 2.77081 49.4405C3.12817 49.6899 3.45727 49.6772 3.87887 49.6788C4.01057 49.6796 4.14227 49.6803 4.27796 49.681C4.42426 49.6813 4.57055 49.6816 4.71684 49.6819C4.87066 49.6825 5.02448 49.6832 5.1783 49.6839C5.68382 49.686 6.18933 49.6871 6.69485 49.6881C6.86898 49.6885 7.0431 49.6889 7.21723 49.6893C8.03542 49.6913 8.85361 49.6927 9.6718 49.6936C10.6157 49.6946 11.5595 49.6972 12.5034 49.7013C13.2333 49.7044 13.9631 49.7059 14.693 49.7062C15.1288 49.7065 15.5645 49.7074 16.0003 49.7099C16.4105 49.7123 16.8207 49.7127 17.2309 49.7117C17.3811 49.7116 17.5313 49.7123 17.6814 49.7137C18.6267 49.722 19.3387 49.7114 20.046 49.0228C20.4161 48.4107 20.4455 47.8062 20.4447 47.1094C20.4453 46.9785 20.4453 46.9785 20.446 46.845C20.4466 46.6614 20.4466 46.4778 20.4462 46.2942C20.4459 46.0152 20.4482 45.7362 20.4508 45.4572C20.451 45.2779 20.4511 45.0987 20.451 44.9194C20.4524 44.7958 20.4524 44.7958 20.4538 44.6696C20.4487 44.0226 20.3452 43.441 19.9127 42.9326C19.8435 42.877 19.7744 42.8213 19.7032 42.764C19.6341 42.7065 19.5649 42.649 19.4937 42.5898C19.1247 42.3332 18.8038 42.3381 18.3673 42.3364C18.171 42.3353 18.171 42.3353 17.9708 42.3342C17.8255 42.3339 17.6801 42.3337 17.5348 42.3334C17.382 42.3328 17.2291 42.3321 17.0763 42.3314C16.5741 42.3293 16.0719 42.3282 15.5697 42.3272C15.3967 42.3268 15.2237 42.3264 15.0507 42.3259C14.2378 42.324 13.4249 42.3226 12.6121 42.3217C11.6743 42.3207 10.7366 42.318 9.79894 42.3139C9.0738 42.3109 8.34867 42.3094 7.62352 42.309C7.1906 42.3088 6.75771 42.3079 6.32479 42.3053C5.91723 42.303 5.50971 42.3025 5.10213 42.3036C4.95295 42.3036 4.80376 42.303 4.65458 42.3016C3.71518 42.2933 2.97933 42.2943 2.29791 43.0115ZM35.7596 42.4434C35.7062 42.4968 35.6527 42.5503 35.5977 42.6053C35.5316 42.6696 35.4655 42.7339 35.3974 42.8001C35.2703 42.9299 35.2703 42.9299 35.1407 43.0623C35.0119 43.1891 34.883 43.3156 34.7539 43.442C34.4788 43.7129 34.2043 43.9842 33.9319 44.2577C33.8737 44.3159 33.8156 44.3741 33.7557 44.4341C33.5574 44.6512 33.5169 44.7797 33.4776 45.0745C33.491 45.4136 33.491 45.4136 33.7252 45.6903C34.0115 45.9315 34.0115 45.9315 34.379 45.9632C34.7818 45.8985 34.9528 45.7805 35.2422 45.4998C35.2534 45.5696 35.2645 45.6394 35.276 45.7113C35.2921 45.8028 35.3082 45.8943 35.3248 45.9886C35.3401 46.0793 35.3554 46.1701 35.3712 46.2635C35.4523 46.5391 35.5243 46.6471 35.7501 46.8201C36.1153 46.9313 36.288 46.9542 36.6387 46.7947C36.8948 46.5956 37.0467 46.4289 37.1124 46.1048C37.1195 46.033 37.1266 45.9611 37.1338 45.887C37.1527 45.6954 37.1527 45.6954 37.1719 45.4998C37.2431 45.5648 37.3144 45.6297 37.3877 45.6966C37.7167 45.9326 37.8843 46.0159 38.2891 46.0076C38.6321 45.7876 38.8455 45.6245 39.0064 45.2459C38.9881 44.5122 38.1835 43.9271 37.7051 43.4432C37.6156 43.3494 37.526 43.2557 37.4338 43.1591C37.3458 43.0701 37.2578 42.9811 37.1672 42.8893C37.0877 42.808 37.0083 42.7267 36.9265 42.6429C36.5773 42.3901 36.1687 42.2489 35.7596 42.4434ZM33.5157 48.4451C33.431 48.8006 33.431 48.8006 33.5157 49.1561C33.7207 49.4402 33.8831 49.6323 34.2347 49.7114C34.4946 49.7312 34.7499 49.7343 35.0106 49.7313C35.1056 49.7318 35.2006 49.7323 35.2985 49.7328C35.4989 49.7331 35.6993 49.7322 35.8998 49.7301C36.2061 49.7274 36.5121 49.7301 36.8184 49.7333C37.0135 49.733 37.2086 49.7323 37.4036 49.7313C37.5406 49.7329 37.5406 49.7329 37.6803 49.7344C38.1327 49.726 38.3316 49.7086 38.7023 49.428C38.9239 49.1623 38.9239 49.1623 38.962 48.8006C38.8798 48.3403 38.7623 48.2187 38.3907 47.9373C38.0614 47.8633 37.7401 47.8661 37.4036 47.8699C37.3086 47.8694 37.2136 47.8689 37.1157 47.8684C36.9153 47.8681 36.7148 47.869 36.5144 47.8711C36.208 47.8738 35.9021 47.8711 35.5957 47.8679C35.4007 47.8682 35.2056 47.8689 35.0106 47.8699C34.9192 47.8689 34.8279 47.8678 34.7339 47.8668C34.1577 47.8775 33.8722 47.951 33.5157 48.4451Z" fill="#1C1F35"/>
<path d="M52 8.32812C52.0139 12.4822 52.0247 16.6363 52.0311 20.7904C52.0319 21.2807 52.0327 21.771 52.0335 22.2614C52.0336 22.359 52.0338 22.4566 52.034 22.5572C52.0366 24.1382 52.0414 25.7191 52.047 27.3001C52.0527 28.9221 52.0561 30.5441 52.0573 32.1661C52.0582 33.1672 52.0608 34.1682 52.0658 35.1692C52.069 35.8555 52.07 36.5417 52.0692 37.228C52.0688 37.624 52.0694 38.02 52.0726 38.4161C52.0756 38.7788 52.0758 39.1414 52.0737 39.5041C52.0733 39.6973 52.0759 39.8904 52.0787 40.0835C52.0728 40.6359 52.0682 41.0248 51.7027 41.4583C51.6016 41.556 51.4979 41.6512 51.3906 41.7422C51.3277 41.8023 51.2647 41.8624 51.1998 41.9243C51.1152 41.9944 51.1152 41.9944 51.0288 42.0659C50.6492 42.3887 50.2829 42.7234 49.918 43.0625C49.5031 43.4474 49.0848 43.8264 48.6568 44.1967C48.33 44.4842 48.0107 44.7797 47.6904 45.0743C47.2006 45.5246 46.7062 45.9698 46.2109 46.4141C46.0416 46.5664 45.8724 46.7187 45.7031 46.8711C45.4518 47.0974 45.2003 47.3236 44.9485 47.5495C44.8666 47.6231 44.7846 47.6967 44.7002 47.7725C44.5763 47.8836 44.5763 47.8836 44.4499 47.997C44.2503 48.1781 44.0524 48.3604 43.8556 48.5445C43.7734 48.621 43.7734 48.621 43.6895 48.6991C43.5824 48.7989 43.4757 48.8991 43.3694 48.9997C43.131 49.2215 42.9695 49.3565 42.6562 49.4609C42.656 49.3633 42.656 49.3633 42.6558 49.2638C42.6476 45.4083 42.6384 41.5528 42.6278 37.6974C42.6265 37.2345 42.6253 36.7716 42.624 36.3088C42.6238 36.2166 42.6235 36.1245 42.6233 36.0295C42.6192 34.5372 42.6159 33.0449 42.6128 31.5525C42.6097 30.0214 42.6058 28.4903 42.6011 26.9592C42.5983 26.0143 42.5961 25.0695 42.5946 24.1246C42.5935 23.4768 42.5917 22.829 42.5893 22.1811C42.5879 21.8073 42.5869 21.4335 42.5868 21.0597C42.5866 20.6543 42.5849 20.2489 42.583 19.8436C42.5832 19.7255 42.5834 19.6074 42.5836 19.4858C42.5796 18.9093 42.5476 18.419 42.3516 17.875C43.5943 16.6299 44.8372 15.3852 46.0806 14.1407C46.6578 13.563 47.235 12.9851 47.8119 12.407C48.3146 11.9033 48.8174 11.3998 49.3205 10.8965C49.587 10.6299 49.8534 10.3631 50.1197 10.0962C50.4163 9.79867 50.7134 9.50157 51.0105 9.2045C51.0994 9.11523 51.1883 9.02596 51.2799 8.93398C51.3604 8.85365 51.4409 8.77332 51.5238 8.69056C51.5941 8.62016 51.6644 8.54976 51.7368 8.47722C51.8984 8.32812 51.8984 8.32812 52 8.32812Z" fill="#1C1F35"/>
<path d="M44.1606 6.46835C44.2426 6.47198 44.3245 6.47562 44.4089 6.47936C46.5414 6.57585 48.6618 6.75175 50.7812 7.0079C50.3098 7.57184 49.8108 8.09966 49.2952 8.62321C49.1662 8.75461 49.1662 8.75461 49.0347 8.88867C48.2482 9.68934 47.4586 10.487 46.668 11.2837C46.0844 11.8718 45.5026 12.4615 44.9228 13.0534C44.5138 13.4707 44.1029 13.886 43.6905 14.2999C43.4446 14.5468 43.1997 14.7945 42.9568 15.0444C42.686 15.3221 42.4122 15.5964 42.1374 15.8702C42.0577 15.9534 41.978 16.0366 41.8959 16.1223C41.6831 16.3308 41.4921 16.507 41.2344 16.6563C40.8532 16.6059 40.8532 16.6059 40.6511 16.5282C40.1636 16.3688 39.6259 16.4218 39.1176 16.4208C38.9243 16.4193 38.9243 16.4193 38.727 16.4177C38.3758 16.415 38.0246 16.4134 37.6734 16.4121C37.3055 16.4105 36.9376 16.4078 36.5698 16.4052C35.8742 16.4005 35.1785 16.3967 34.4829 16.3934C33.6905 16.3895 32.8982 16.3844 32.1058 16.3793C30.4768 16.3689 28.8478 16.3598 27.2188 16.3517C27.3499 16.2027 27.3499 16.2027 27.4838 16.0508C27.7723 15.7141 28.0345 15.3647 28.2926 15.0044C29.2234 13.7068 30.2312 12.4768 31.2876 11.2799C31.3546 11.2036 31.3546 11.2036 31.423 11.1259C35.1191 6.93629 38.7011 6.22028 44.1606 6.46835Z" fill="#1C1F35"/>
<path d="M11.1267 6.99554C11.3066 6.99533 11.3066 6.99533 11.4901 6.99512C11.6885 6.99566 11.6885 6.99566 11.8908 6.99622C12.0309 6.99625 12.171 6.99624 12.3111 6.99618C12.6922 6.99615 13.0732 6.99675 13.4543 6.99746C13.8522 6.99809 14.2502 6.99815 14.6482 6.99827C15.4021 6.99859 16.156 6.99942 16.9099 7.00044C17.7681 7.00157 18.6263 7.00213 19.4844 7.00264C21.25 7.00371 23.0156 7.00549 24.7812 7.00775C24.6941 7.10705 24.6069 7.20634 24.5171 7.30865C24.2275 7.64655 23.9606 7.99645 23.6972 8.355C22.7454 9.64882 21.7228 10.8802 20.6553 12.0795C20.6102 12.1303 20.5651 12.1812 20.5187 12.2335C18.2231 14.8133 15.9968 16.6549 12.4463 16.897C11.0605 16.9773 9.68222 16.9585 8.29639 16.8911C8.21994 16.8874 8.14349 16.8838 8.06473 16.88C6.0784 16.7837 4.10515 16.6082 2.13281 16.3515C2.37305 15.9863 2.60628 15.649 2.90921 15.3335C2.97801 15.2612 3.04681 15.189 3.11769 15.1145C3.18858 15.0409 3.25948 14.9673 3.33252 14.8915C3.80306 14.4002 4.26559 13.9055 4.71103 13.3913C4.94686 13.1206 5.18997 12.8574 5.43359 12.5937C5.74231 12.2586 6.04922 11.9224 6.34766 11.5781C6.69373 11.1788 7.05162 10.7906 7.40952 10.4019C7.66669 10.1222 7.9209 9.84059 8.16943 9.55316C8.53893 9.12655 8.92364 8.7144 9.30777 8.30101C9.58472 8.00217 9.85617 7.70081 10.1182 7.38861C10.4609 6.99177 10.6193 6.99509 11.1267 6.99554Z" fill="#1C1F35"/>
<path d="M31.3828 0.40625C31.748 0.537243 32.0236 0.690773 32.3258 0.933105C32.4444 1.02698 32.4444 1.02698 32.5653 1.12274C32.6464 1.18794 32.7275 1.25314 32.811 1.32031C32.9728 1.4497 33.1348 1.57879 33.297 1.70752C33.3683 1.76473 33.4395 1.82194 33.5129 1.88089C33.8596 2.1341 34.0202 2.23867 34.4631 2.22051C34.8679 2.12529 35.1751 1.96726 35.5203 1.74521C35.5819 1.70703 35.6436 1.66885 35.7071 1.62951C35.902 1.50854 36.0958 1.38597 36.2896 1.26318C36.4853 1.14032 36.6812 1.0178 36.8775 0.895765C36.9991 0.820017 37.1204 0.74374 37.2413 0.666887C37.6571 0.40625 37.6571 0.40625 37.8828 0.40625C37.8166 2.96303 36.1831 4.89463 34.5628 6.70102C34.5165 6.75275 34.4702 6.80448 34.4225 6.85778C33.5029 7.88383 32.5622 8.88969 31.6134 9.88868C31.0131 10.5215 30.4208 11.1591 29.844 11.8134C25.7181 16.4817 25.7181 16.4817 22.9038 16.6831C21.2573 16.7778 19.6009 16.616 17.9766 16.3516C18.4589 15.7713 18.9759 15.2375 19.5109 14.7058C19.6507 14.5662 19.7905 14.4266 19.9303 14.287C20.0794 14.1383 20.2286 13.9897 20.3779 13.8411C20.6903 13.5301 21.0023 13.2186 21.3142 12.9072C22.0328 12.1898 22.7518 11.473 23.4709 10.7562C24.1302 10.099 24.7893 9.44166 25.448 8.78395C25.7575 8.47503 26.0671 8.16636 26.377 7.85789C26.5236 7.71182 26.6702 7.56563 26.8166 7.41939C26.9943 7.24204 27.1721 7.06486 27.3502 6.88792C27.8354 6.40275 28.2963 5.90419 28.7422 5.38281C28.8724 5.23631 28.8724 5.23631 29.0052 5.08685C30.206 3.7003 30.8977 2.16319 31.3828 0.40625Z" fill="#FBB03B"/>
<path d="M16.6562 18.0781C19.1364 18.0781 21.6166 18.0781 24.1719 18.0781C24.1719 22.0665 24.1719 26.0548 24.1719 30.1641C23.7772 29.9667 23.4594 29.7332 23.1182 29.4595C22.992 29.3594 22.8658 29.2593 22.7397 29.1591C22.6748 29.1075 22.61 29.0558 22.5432 29.0026C22.2151 28.7413 21.886 28.4814 21.5566 28.2217C21.4961 28.1736 21.4356 28.1256 21.3732 28.0761C20.9218 27.7199 20.6946 27.5665 20.1094 27.625C19.8058 27.7989 19.8058 27.7989 19.5127 28.0503C19.4295 28.117 19.4295 28.117 19.3447 28.185C19.1581 28.3352 18.9735 28.4877 18.7891 28.6406C18.5733 28.8188 18.3575 28.9968 18.1412 29.1743C18 29.2905 17.8594 29.4074 17.7195 29.525C17.6546 29.5788 17.5896 29.6326 17.5227 29.688C17.4657 29.7358 17.4087 29.7836 17.3499 29.8328C17.1641 29.9609 17.1641 29.9609 16.6562 30.1641C16.6562 26.1757 16.6562 22.1873 16.6562 18.0781Z" fill="#FBB03B"/>
<path d="M3.65625 44.0781C8.58305 44.0781 13.5098 44.0781 18.5859 44.0781C18.5859 45.3517 18.5859 46.6253 18.5859 47.9375C13.6591 47.9375 8.73234 47.9375 3.65625 47.9375C3.65625 46.6639 3.65625 45.3903 3.65625 44.0781Z" fill="#FBB03B"/>
</g>
<defs>
<clipPath id="clip0_328_812">
<rect width="52" height="52" fill="white"/>
</clipPath>
</defs>
</svg>
